 <svg  version="1.0" xmlns="http://www.w3.org/2000/svg"  width="300.000000pt" height="300.000000pt" viewBox="0 0 300.000000 300.000000"  preserveAspectRatio="xMidYMid meet">  <g transform="translate(0.000000,300.000000) scale(0.100000,-0.100000)" fill="#5e5e5e" stroke="none"> <path d="M395 2744 c-44 -22 -76 -55 -91 -91 -19 -44 -17 -131 4 -169 9 -17 225 -249 480 -514 254 -266 462 -487 462 -491 0 -4 -209 -226 -464 -492 -256 -267 -472 -499 -480 -515 -20 -38 -21 -134 -2 -170 19 -36 65 -78 99 -91 40 -16 123 -14 156 3 27 15 251 243 721 737 129 136 237 247 240 248 3 1 214 -217 468 -483 270 -283 477 -491 497 -500 82 -39 198 -6 245 69 30 48 36 130 13 177 -10 21 -226 255 -483 523 -256 267 -465 490 -465 494 0 5 209 227 465 494 281 294 472 501 482 524 29 63 19 134 -26 196 -44 60 -157 85 -230 50 -21 -10 -217 -207 -497 -500 -255 -266 -466 -482 -469 -481 -4 2 -217 222 -473 489 -324 339 -475 490 -498 498 -45 16 -119 14 -154 -5z"/> </g> </svg> 